<svg width="170" height="26" viewBox="0 0 170 26" fill="none" xmlns="http://www.w3.org/2000/svg">
<g clip-path="url(#clip0_163_292)">
<path d="M25.0138 1.27496H34.3354L39.4517 17.2394H39.5263L44.6027 1.27496H53.6358V25.2541H47.6884L47.8327 6.41478H47.7581L41.7361 25.2541H36.6198L30.563 6.41478H30.4883L30.5978 25.2541H25.0088V1.27496H25.0138Z" fill="#002F78"/>
<path d="M74.6033 17.3094H61.8725C62.1263 20.2593 63.6144 21.5343 66.0829 21.5343C68.2229 21.5343 69.6015 20.7693 69.7459 19.0194H74.6083C74.4988 23.1392 71.0896 25.5441 65.9734 25.5441C60.026 25.5441 56.3232 22.1542 56.3232 16.4344C56.3232 10.7146 60.0211 6.95976 66.0829 6.95976C71.0896 6.95976 74.6083 9.83966 74.6083 15.7445V17.3094H74.6033ZM69.7409 14.0695C69.7409 12.0296 68.3623 10.9696 66.0779 10.9696C63.7935 10.9696 62.4498 11.9896 62.0168 14.3595H69.7459V14.0695H69.7409Z" fill="#002F78"/>
<path d="M76.7036 16.1095C76.7036 10.6046 80.1128 6.95976 85.3385 6.95976C88.24 6.95976 90.1262 8.05473 90.9275 9.90966H90.9624V0H96.4767V25.2541H90.9624C90.9972 24.8892 91.0718 23.3242 91.1813 21.3893H91.1067C90.4149 23.9392 88.3843 25.5441 85.1195 25.5441C79.9336 25.5441 76.7036 21.7543 76.7036 16.1045V16.1095ZM90.9624 16.3994V15.5245C90.9624 12.9346 89.1508 11.1896 86.4633 11.1896C83.7757 11.1896 82.1832 13.1596 82.1832 16.1445C82.1832 19.1294 83.8504 21.3193 86.3886 21.3193C89.1458 21.3193 90.9574 19.3493 90.9574 16.3994H90.9624Z" fill="#002F78"/>
<path d="M117.26 17.3094H104.529C104.783 20.2593 106.271 21.5343 108.74 21.5343C110.88 21.5343 112.258 20.7693 112.403 19.0194H117.265C117.156 23.1392 113.746 25.5441 108.63 25.5441C102.683 25.5441 98.98 22.1542 98.98 16.4344C98.98 10.7146 102.683 6.95976 108.74 6.95976C113.746 6.95976 117.265 9.83966 117.265 15.7445V17.3094H117.26ZM112.398 14.0695C112.398 12.0296 111.019 10.9696 108.735 10.9696C106.45 10.9696 105.107 11.9896 104.674 14.3595H112.403V14.0695H112.398Z" fill="#002F78"/>
<path d="M119.689 7.25475H125.203L124.984 12.0296H125.059C125.965 8.60471 128.07 6.96476 132.131 6.96476C136.451 6.96476 139.243 9.33468 139.243 13.9995V25.2591H133.729V15.2345C133.729 12.6846 132.275 11.5546 129.847 11.5546C126.945 11.5546 125.203 13.2695 125.203 16.6944V25.2591H119.689V7.25475Z" fill="#002F78"/>
<path d="M141.487 16.1095C141.487 10.6046 144.896 6.95976 150.122 6.95976C153.024 6.95976 154.91 8.05473 155.711 9.90966H155.746V0H161.26V25.2541H155.746C155.781 24.8892 155.856 23.3242 155.965 21.3893H155.89C155.199 23.9392 153.168 25.5441 149.903 25.5441C144.717 25.5441 141.487 21.7543 141.487 16.1045V16.1095ZM155.746 16.3994V15.5245C155.746 12.9346 153.934 11.1896 151.247 11.1896C148.559 11.1896 146.967 13.1596 146.967 16.1445C146.967 19.1294 148.634 21.3193 151.172 21.3193C153.929 21.3193 155.741 19.3493 155.741 16.3994H155.746Z" fill="#002F78"/>
<path d="M166.989 6.04979C168.652 6.04979 170 4.6955 170 3.0249C170 1.35429 168.652 0 166.989 0C165.326 0 163.978 1.35429 163.978 3.0249C163.978 4.6955 165.326 6.04979 166.989 6.04979Z" fill="#002F78"/>
<path d="M164.232 7.97973V25.2541H169.746V7.97973C169.746 7.69974 169.453 7.51975 169.204 7.63974C168.532 7.96473 167.785 8.14972 166.989 8.14972C166.193 8.14972 165.446 7.96473 164.774 7.63974C164.521 7.51475 164.232 7.69474 164.232 7.97973Z" fill="#002F78"/>
<path d="M9.34651 25.2541C11.1963 25.2541 12.6959 23.7476 12.6959 21.8893C12.6959 20.0309 11.1963 18.5244 9.34651 18.5244C7.49666 18.5244 5.99707 20.0309 5.99707 21.8893C5.99707 23.7476 7.49666 25.2541 9.34651 25.2541Z" fill="#002F78"/>
<path d="M9.34649 10.7546C11.9522 10.7546 14.0646 8.63254 14.0646 6.01479C14.0646 3.39705 11.9522 1.27496 9.34649 1.27496C6.74077 1.27496 4.62842 3.39705 4.62842 6.01479C4.62842 8.63254 6.74077 10.7546 9.34649 10.7546Z" fill="#FF5AAD"/>
<path d="M18.6781 14.3695C18.9269 17.0394 16.4385 18.9894 13.9003 18.3194C11.7702 17.7544 10.6404 14.3945 8.09227 15.8895C6.24087 16.9694 5.69839 18.9594 2.95613 18.3944C-1.06518 17.5644 -0.935781 11.6996 3.01088 10.9996C5.85267 10.4946 6.33045 12.6346 8.2565 13.6345C10.5757 14.8445 11.6706 11.9896 13.4275 11.2496C15.7915 10.2597 18.4392 11.7846 18.6781 14.3695Z" fill="#002F78"/>
</g>
<defs>
<clipPath id="clip0_163_292">
<rect width="170" height="25.5491" fill="white"/>
</clipPath>
</defs>
</svg>
